<svg xmlns="http://www.w3.org/2000/svg" xmlns:xlink="http://www.w3.org/1999/xlink" width="684" height="25" viewBox="0 0 684 25">
  <defs>
    <style>
      .cls-1 {
        fill: url(#linear-gradient);
      }

      .cls-2 {
        fill: #626263;
      }

      .cls-15, .cls-3 {
        fill: none;
      }

      .cls-3 {
        stroke: #e8e8ea;
      }

      .cls-4 {
        fill: #e8e8ea;
      }

      .cls-5 {
        fill: #848485;
      }

      .cls-6, .cls-7 {
        fill: #e9e9e9;
      }

      .cls-7 {
        font-size: 10px;
        font-family: Roboto-Regular, Roboto;
      }

      .cls-8 {
        fill: #e9e9eb;
      }

      .cls-9 {
        fill: #b5b5b6;
      }

      .cls-10 {
        fill: #848486;
      }

      .cls-11 {
        fill: #ff5f57;
      }

      .cls-12 {
        fill: #ffbd2e;
      }

      .cls-13 {
        fill: #27c940;
      }

      .cls-14 {
        stroke: none;
      }

      .cls-16 {
        filter: url(#Background-5);
      }

      .cls-17 {
        filter: url(#Background-4);
      }

      .cls-18 {
        filter: url(#Background-3);
      }

      .cls-19 {
        filter: url(#Url_background);
      }

      .cls-20 {
        filter: url(#Background-2);
      }

      .cls-21 {
        filter: url(#Background);
      }
    </style>
    <linearGradient id="linear-gradient" x1="0.5" x2="0.5" y2="1" gradientUnits="objectBoundingBox">
      <stop offset="0" stop-color="#3a3a3d"/>
      <stop offset="1" stop-color="#2e2e31"/>
    </linearGradient>
    <filter id="Background" x="646" y="4" width="20" height="16" filterUnits="userSpaceOnUse">
      <feOffset dy="-1" input="SourceAlpha"/>
      <feGaussianBlur result="blur"/>
      <feFlood flood-color="#fff" flood-opacity="0.302"/>
      <feComposite operator="in" in2="blur"/>
      <feComposite in="SourceGraphic"/>
    </filter>
    <filter id="Background-2" x="622" y="4" width="20" height="16" filterUnits="userSpaceOnUse">
      <feOffset dy="-1" input="SourceAlpha"/>
      <feGaussianBlur result="blur-2"/>
      <feFlood flood-color="#fff" flood-opacity="0.302"/>
      <feComposite operator="in" in2="blur-2"/>
      <feComposite in="SourceGraphic"/>
    </filter>
    <filter id="Url_background" x="215" y="4" width="306" height="16" filterUnits="userSpaceOnUse">
      <feOffset dy="-1" input="SourceAlpha"/>
      <feGaussianBlur result="blur-3"/>
      <feFlood flood-color="#fff" flood-opacity="0.302"/>
      <feComposite operator="in" in2="blur-3"/>
      <feComposite in="SourceGraphic"/>
    </filter>
    <filter id="Background-3" x="96" y="4" width="18" height="16" filterUnits="userSpaceOnUse">
      <feOffset dy="-1" input="SourceAlpha"/>
      <feGaussianBlur result="blur-4"/>
      <feFlood flood-color="#fff" flood-opacity="0.302"/>
      <feComposite operator="in" in2="blur-4"/>
      <feComposite in="SourceGraphic"/>
    </filter>
    <filter id="Background-4" x="78" y="4" width="12" height="16" filterUnits="userSpaceOnUse">
      <feOffset dy="-1" input="SourceAlpha"/>
      <feGaussianBlur result="blur-5"/>
      <feFlood flood-color="#fff" flood-opacity="0.302"/>
      <feComposite operator="in" in2="blur-5"/>
      <feComposite in="SourceGraphic"/>
    </filter>
    <filter id="Background-5" x="63" y="4" width="13" height="16" filterUnits="userSpaceOnUse">
      <feOffset dy="-1" input="SourceAlpha"/>
      <feGaussianBlur result="blur-6"/>
      <feFlood flood-color="#fff" flood-opacity="0.302"/>
      <feComposite operator="in" in2="blur-6"/>
      <feComposite in="SourceGraphic"/>
    </filter>
  </defs>
  <g id="Browser" transform="translate(-320 -180)">
    <g id="Toolbar" transform="translate(320 180)">
      <path id="Toolbar_background" data-name="Toolbar background" class="cls-1" d="M6,0H678a6,6,0,0,1,6,6V25a0,0,0,0,1,0,0H0a0,0,0,0,1,0,0V6A6,6,0,0,1,6,0Z"/>
      <rect id="Line" width="684" height="1" transform="translate(0 24)"/>
      <g id="Button_tabs_preview" data-name="Button tabs preview" transform="translate(646.286 5)">
        <g class="cls-21" transform="matrix(1, 0, 0, 1, -646.29, -5)">
          <rect id="Background-6" data-name="Background" class="cls-2" width="20" height="15" rx="4" transform="translate(646 5)"/>
        </g>
        <g id="Icon_tabs_preview" data-name="Icon tabs preview" transform="translate(6.857 4)">
          <g id="Rectangle_12" data-name="Rectangle 12" class="cls-3" transform="translate(-0.143 2)">
            <rect class="cls-14" width="6" height="6" rx="1"/>
            <rect class="cls-15" x="0.5" y="0.5" width="5" height="5" rx="0.5"/>
          </g>
          <path id="Subtraction_2" data-name="Subtraction 2" class="cls-4" d="M3.556,6H3.111V5.333h.444V.667H.444v.667H0V.667C0,.3.2,0,.444,0H3.556C3.8,0,4,.3,4,.667V5.333C4,5.7,3.8,6,3.556,6Z" transform="translate(1.857)"/>
        </g>
      </g>
      <g id="Button_share" data-name="Button share" transform="translate(622.286 5)">
        <g class="cls-20" transform="matrix(1, 0, 0, 1, -622.29, -5)">
          <rect id="Background-7" data-name="Background" class="cls-2" width="20" height="15" rx="4" transform="translate(622 5)"/>
        </g>
        <g id="Icon_share" data-name="Icon share" transform="translate(6.857 2.927)">
          <path id="Subtraction_4" data-name="Subtraction 4" class="cls-5" d="M5,7H1A1,1,0,0,1,0,6V1A1,1,0,0,1,1,0H2.182V.7H.545V6.3H5.455V.7H3.819V0H5A1,1,0,0,1,6,1V6A1,1,0,0,1,5,7Z" transform="translate(-0.143 3.073)"/>
          <path id="Union_3" data-name="Union 3" class="cls-5" d="M1.333,6.6V1.279L.474,2.591A.233.233,0,0,1,.1,2.64a.387.387,0,0,1-.04-.464L1.361.187A.33.33,0,0,1,1.434.074a.239.239,0,0,1,.346,0,.33.33,0,0,1,.073.113l1.3,1.988a.387.387,0,0,1-.04.464.236.236,0,0,1-.168.074.252.252,0,0,1-.207-.122L1.868,1.26V6.6Z" transform="translate(1.358)"/>
        </g>
      </g>
      <g id="Url" transform="translate(215.006 5)">
        <g class="cls-19" transform="matrix(1, 0, 0, 1, -215.01, -5)">
          <rect id="Url_background-2" data-name="Url background" class="cls-2" width="306" height="15" rx="4" transform="translate(215 5)"/>
        </g>
        <path id="Icon_lock" data-name="Icon lock" class="cls-6" d="M0,7V2.8H.5V1.5a1.5,1.5,0,1,1,3,0V2.8H4V7ZM3,2.8V1.7a1,1,0,1,0-2,0V2.8Z" transform="translate(115.994 4)"/>
        <text id="awesome_work" data-name="awesome work" class="cls-7" transform="translate(124.994 11)"><tspan x="0" y="0">awesome work</tspan></text>
      </g>
      <g id="Button_side_menu" data-name="Button side menu" transform="translate(95.571 5)">
        <g class="cls-18" transform="matrix(1, 0, 0, 1, -95.57, -5)">
          <rect id="Background-8" data-name="Background" class="cls-2" width="18" height="15" rx="4" transform="translate(96 5)"/>
        </g>
        <g id="Icon_side_menu" data-name="Icon side menu" transform="translate(5.143 4)">
          <path id="Subtraction_6" data-name="Subtraction 6" class="cls-8" d="M8,8H1A1,1,0,0,1,0,7V1A1,1,0,0,1,1,0H8A1,1,0,0,1,9,1V7A1,1,0,0,1,8,8ZM3.6.667V7.333H8.4V.667Zm-3,0V7.333H3V.667Z" transform="translate(0.286)"/>
          <rect id="Rectangle_29" data-name="Rectangle 29" class="cls-9" width="1" height="1" transform="translate(1.286 1)"/>
          <rect id="Rectangle_30" data-name="Rectangle 30" class="cls-9" width="1" height="1" transform="translate(1.286 2)"/>
          <rect id="Rectangle_31" data-name="Rectangle 31" class="cls-9" width="1" transform="translate(1.286 4)"/>
        </g>
      </g>
      <g id="Button_forward" data-name="Button forward" transform="translate(77.571 5)">
        <g class="cls-17" transform="matrix(1, 0, 0, 1, -77.57, -5)">
          <rect id="Background-9" data-name="Background" class="cls-2" width="12" height="15" rx="4" transform="translate(78 5)"/>
        </g>
        <g id="Icon_forward" data-name="Icon forward" transform="translate(0.39 2.836)">
          <path id="Union_6" data-name="Union 6" class="cls-10" d="M0,5.291V.481a.481.481,0,0,1,.962,0v4h4.8a.481.481,0,1,1,0,.962H.938A.481.481,0,0,1,0,5.291Z" transform="translate(3.852 8.89) rotate(-135)"/>
        </g>
      </g>
      <g id="Button_back" data-name="Button back" transform="translate(63 5)">
        <g class="cls-16" transform="matrix(1, 0, 0, 1, -63, -5)">
          <rect id="Background-10" data-name="Background" class="cls-2" width="13" height="15" rx="4" transform="translate(63 5)"/>
        </g>
        <g id="Icon_back" data-name="Icon back" transform="translate(4.359 3.128)">
          <path id="Union_6-2" data-name="Union 6" class="cls-10" d="M0,5.291V.481A.481.481,0,0,1,.481,0H5.291a.481.481,0,1,1,0,.962H.962V5.291a.481.481,0,1,1-.962,0Z" transform="translate(0 4.396) rotate(-45)"/>
        </g>
      </g>
      <g id="Window_controls" data-name="Window controls" transform="translate(18.714 9)">
        <circle id="Close" class="cls-11" cx="4" cy="4" r="4" transform="translate(-0.714)"/>
        <circle id="Minimize" class="cls-12" cx="4" cy="4" r="4" transform="translate(12.286)"/>
        <circle id="Maximize" class="cls-13" cx="4" cy="4" r="4" transform="translate(25.286)"/>
      </g>
    </g>
  </g>
</svg>
