<svg id="bubble" xmlns="http://www.w3.org/2000/svg" width="26.802" height="23.451" viewBox="0 0 26.802 23.451">
  <path id="Path_2" data-name="Path 2" d="M13.4,2c7.4,0,13.4,4.5,13.4,10.051,0,3.457-2.328,6.5-5.87,8.314,0,.023.007.038.007.062,0,1.5,1.121,3.118,1.615,3.967h0a.758.758,0,0,1-.7,1.059c-.079,0-.217-.021-.214-.012-2.617-.429-5.083-2.833-5.656-3.53A17.739,17.739,0,0,1,13.4,22.1C6,22.1,0,17.6,0,12.051S6,2,13.4,2Zm0,18.426a16.267,16.267,0,0,0,2.342-.173,1.488,1.488,0,0,1,.243-.018,1.676,1.676,0,0,1,1.295.611,11.251,11.251,0,0,0,2.584,2.127,6.557,6.557,0,0,1-.6-2.456c-.005-.054-.008-.108-.008-.154a1.675,1.675,0,0,1,.913-1.492c3.1-1.585,4.957-4.135,4.957-6.821,0-4.618-5.26-8.376-11.726-8.376S1.675,7.432,1.675,12.051,6.936,20.426,13.4,20.426Z" transform="translate(0 -2)" fill="#333" fill-rule="evenodd"/>
</svg>
