<svg xmlns="http://www.w3.org/2000/svg" width="28.492" height="27.789" viewBox="0 0 28.492 27.789">
  <path id="Path_63" data-name="Path 63" d="M16.3,2a14.248,14.248,0,0,0-4.5,27.765c.713.129.97-.31.97-.687,0-.339-.011-1.236-.016-2.422-3.964.86-4.8-1.911-4.8-1.911a3.764,3.764,0,0,0-1.581-2.084c-1.293-.884.1-.864.1-.864a2.983,2.983,0,0,1,2.181,1.468,3.033,3.033,0,0,0,4.145,1.184,3.054,3.054,0,0,1,.907-1.905c-3.162-.359-6.487-1.581-6.487-7.042a5.52,5.52,0,0,1,1.463-3.821A5.124,5.124,0,0,1,8.815,7.91s1.2-.384,3.916,1.458a13.482,13.482,0,0,1,7.13,0c2.722-1.844,3.916-1.458,3.916-1.458a5.1,5.1,0,0,1,.141,3.771A5.485,5.485,0,0,1,25.382,15.5c0,5.475-3.328,6.677-6.5,7.03a3.413,3.413,0,0,1,.964,2.637c0,1.905-.017,3.442-.017,3.909,0,.381.254.824.981.684A14.248,14.248,0,0,0,16.3,2Z" transform="translate(-2.052 -2)" fill="#303179" fill-rule="evenodd"/>
</svg>
