<svg xmlns="http://www.w3.org/2000/svg" width="27.493" height="27.535" viewBox="0 0 27.493 27.535">
  <path id="Path_8" data-name="Path 8" d="M15.3,7.377a7.932,7.932,0,1,0,7.929,7.932A7.93,7.93,0,0,0,15.3,7.377Zm0,13.083a5.153,5.153,0,1,1,5.151-5.153A5.152,5.152,0,0,1,15.3,20.46Z" transform="translate(-1.567 -1.57)" fill="#303179"/>
  <circle id="Ellipse_1" data-name="Ellipse 1" cx="1.432" cy="1.432" r="1.432" transform="translate(19.772 4.854)" fill="#303179"/>
  <path id="Path_9" data-name="Path 9" d="M29.766,7.747a7.03,7.03,0,0,0-4.02-4.018,10.085,10.085,0,0,0-3.337-.641c-1.47-.064-1.936-.082-5.664-.082s-4.206,0-5.664.082a10.006,10.006,0,0,0-3.334.641,7.023,7.023,0,0,0-4.02,4.018,10.053,10.053,0,0,0-.64,3.337C3.022,12.553,3,13.019,3,16.748s0,4.2.085,5.664a10.069,10.069,0,0,0,.64,3.339,7.038,7.038,0,0,0,4.021,4.018,10.052,10.052,0,0,0,3.336.687c1.47.064,1.936.084,5.664.084s4.206,0,5.664-.084a10.1,10.1,0,0,0,3.337-.64,7.043,7.043,0,0,0,4.02-4.02,10.053,10.053,0,0,0,.64-3.337c.066-1.469.085-1.934.085-5.664s0-4.2-.085-5.664A10.047,10.047,0,0,0,29.766,7.747ZM27.907,22.3a7.7,7.7,0,0,1-.475,2.577,4.56,4.56,0,0,1-2.614,2.612,7.61,7.61,0,0,1-2.55.475c-1.45.067-1.86.084-5.579.084s-4.1,0-5.58-.084a7.572,7.572,0,0,1-2.548-.475,4.557,4.557,0,0,1-2.624-2.612,7.756,7.756,0,0,1-.475-2.548c-.066-1.45-.081-1.86-.081-5.579s0-4.1.081-5.58a7.691,7.691,0,0,1,.475-2.576A4.559,4.559,0,0,1,8.562,5.981a7.649,7.649,0,0,1,2.548-.475c1.452-.066,1.86-.084,5.58-.084s4.1,0,5.579.084a7.572,7.572,0,0,1,2.55.475,4.566,4.566,0,0,1,2.614,2.614,7.756,7.756,0,0,1,.475,2.548c.066,1.452.082,1.86.082,5.58s0,4.119-.066,5.579h-.017Z" transform="translate(-3.002 -3.005)" fill="#303179"/>
</svg>
