<svg xmlns="http://www.w3.org/2000/svg" width="17.072" height="13.478" viewBox="0 0 17.072 13.478">
  <path id="Path_18" data-name="Path 18" d="M17.822,6.3v8.385a1.8,1.8,0,0,1-1.8,1.8H4.047a1.8,1.8,0,0,1-1.8-1.8V6.3m15.572,0a1.8,1.8,0,0,0-1.8-1.8H4.047a1.8,1.8,0,0,0-1.8,1.8m15.572,0v.194a1.8,1.8,0,0,1-.855,1.53l-5.989,3.685a1.8,1.8,0,0,1-1.885,0L3.1,8.022a1.8,1.8,0,0,1-.854-1.53V6.3" transform="translate(-1.5 -3.75)" fill="none" stroke="#303179" stroke-linecap="round" stroke-linejoin="round" stroke-width="1.5"/>
</svg>
