<svg xmlns="http://www.w3.org/2000/svg" width="29.493" height="23.955" viewBox="0 0 29.493 23.955">
  <path id="Path_7" data-name="Path 7" d="M28.463,9.989c.02.263.02.524.02.785,0,7.991-6.083,17.2-17.2,17.2A17.08,17.08,0,0,1,2,25.259a12.632,12.632,0,0,0,1.46.075,12.111,12.111,0,0,0,7.505-2.583A6.057,6.057,0,0,1,5.312,18.56a7.7,7.7,0,0,0,1.142.093,6.432,6.432,0,0,0,1.592-.206A6.044,6.044,0,0,1,3.2,12.515V12.44a6.1,6.1,0,0,0,2.731.767A6.053,6.053,0,0,1,4.058,5.124a17.194,17.194,0,0,0,12.465,6.326,6.869,6.869,0,0,1-.15-1.385A6.051,6.051,0,0,1,26.834,5.928a11.941,11.941,0,0,0,3.836-1.46A6.033,6.033,0,0,1,28.012,7.8a12.116,12.116,0,0,0,3.48-.936,12.974,12.974,0,0,1-3.03,3.126Z" transform="translate(-2 -4.019)" fill="#303179"/>
</svg>
